<svg xmlns="http://www.w3.org/2000/svg" width="16.825" height="20.022" viewBox="0 0 16.825 20.022"><path d="M14.348,12.83a4.173,4.173,0,0,1,2.235-3.79A4.8,4.8,0,0,0,12.8,7.046c-1.587-.125-3.321.925-3.956.925-.67,0-2.208-.881-3.415-.881C2.932,7.131.281,9.08.281,13.045a11.141,11.141,0,0,0,.644,3.63c.572,1.64,2.637,5.663,4.792,5.6,1.126-.027,1.922-.8,3.388-.8,1.421,0,2.159.8,3.415.8,2.172-.031,4.041-3.688,4.586-5.333A4.431,4.431,0,0,1,14.348,12.83Zm-2.53-7.34A4.21,4.21,0,0,0,12.891,2.25,4.74,4.74,0,0,0,9.856,3.81,4.276,4.276,0,0,0,8.711,7.024a3.754,3.754,0,0,0,3.107-1.533Z" transform="translate(-0.281 -2.25)"/></svg>