<svg xmlns="http://www.w3.org/2000/svg" width="103.11" height="73" viewBox="0 0 103.11 73"><defs><style>.a,.b{fill:#fff;}.a{fill-rule:evenodd;}</style></defs><g transform="translate(-226.424 -309.814)"><path class="a" d="M368.685,710.927c-.1-.009-.209-.017-.311-.029C368.47,710.9,368.572,710.916,368.685,710.927Z" transform="translate(-116.324 -328.677)"/><path class="a" d="M375.965,711.623c-.052-.006-.1-.009-.157-.012-.073-.006-.145-.012-.218-.02C375.712,711.6,375.837,711.611,375.965,711.623Z" transform="translate(-122.237 -329.245)"/><path class="a" d="M242.165,359.124a19.569,19.569,0,0,0,5.062,8.888,20.156,20.156,0,0,0,11.1,5.728c.035.009.073.014.107.023a2.519,2.519,0,0,1,2.093,2.433v4.411q0,.087-.006.172a2.248,2.248,0,0,1-2.382,2.031c-1.624-.084-3.023-.185-4.137-.278-.1-.009-.189-.015-.279-.023-.128-.012-.253-.023-.375-.032-.09-.009-.177-.018-.262-.023-.017,0-.032,0-.047-.006-.055-.006-.11-.009-.163-.015s-.1-.009-.146-.014c-.073-.006-.14-.015-.206-.02l-.169-.018c-.113-.012-.215-.023-.311-.029a.037.037,0,0,0-.017,0,.11.11,0,0,0-.029,0c-.038,0-.073-.009-.108-.012-.067-.009-.134-.014-.195-.02q-.541-.053-1.064-.113c-.317-.035-.628-.073-.939-.114-.535-.07-1.058-.142-1.567-.221-.23-.035-.459-.07-.68-.107-.273-.044-.541-.09-.805-.137a.19.19,0,0,1-.041-.009c-6.1-1.093-10.438-2.936-13.485-5.934-.081-.081-.163-.163-.241-.244l-.009-.009c-.151-.157-.3-.317-.451-.48,0-.006,0-.009-.006-.012-.148-.163-.294-.334-.433-.506s-.282-.349-.419-.532c-.047-.067-.1-.131-.143-.2-.221-.3-.436-.611-.634-.933-.047-.073-.093-.142-.137-.215-.108-.177-.209-.352-.305-.529-.087-.145-.169-.288-.241-.436a.112.112,0,0,1-.02-.035c-.046-.087-.093-.183-.14-.27-.279-.55-.541-1.119-.776-1.721-.047-.113-.093-.233-.137-.349s-.093-.241-.14-.366-.081-.236-.125-.358c-.084-.238-.166-.488-.244-.741-.041-.125-.081-.253-.116-.381s-.078-.256-.113-.387-.078-.27-.111-.405l-.1-.388c-.038-.131-.07-.268-.1-.4-.026-.108-.055-.218-.081-.326-.166-.718-.314-1.465-.451-2.242-.026-.145-.049-.3-.079-.451-.049-.3-.1-.608-.14-.919-.07-.468-.131-.942-.189-1.43-.038-.323-.073-.651-.108-.986-.055-.5-.1-1.015-.145-1.535-.023-.3-.047-.608-.07-.919-.014-.221-.032-.448-.046-.672-.023-.363-.044-.727-.061-1.1-.032-.57-.058-1.148-.079-1.741-.006-.166-.015-.335-.02-.506,0-.113-.009-.227-.012-.343-.012-.349-.018-.7-.026-1.064-.012-.5-.023-1.015-.032-1.529-.012-.872-.014-1.765-.014-2.678v-2.029q0-1.7.023-3.294c.009-.427.014-.846.026-1.259l.017-.616c.006-.177.012-.352.018-.526s.012-.349.018-.52c.014-.512.038-1.018.061-1.515.012-.247.026-.488.038-.733.052-.887.11-1.744.18-2.576.023-.27.046-.538.073-.8.169-1.788.393-3.442.689-4.975.023-.134.047-.262.073-.39.073-.381.154-.75.241-1.114.049-.215.1-.427.154-.637s.11-.427.169-.637.11-.4.169-.6a24.519,24.519,0,0,1,.933-2.623c.047-.116.1-.233.151-.349.061-.142.128-.288.2-.43s.148-.308.221-.457.157-.3.235-.445a.149.149,0,0,1,.026-.047c.079-.145.154-.288.236-.427.1-.174.206-.349.317-.52.076-.128.157-.256.244-.381.1-.151.206-.3.311-.451.049-.073.1-.148.157-.221.032-.044.067-.087.1-.134l.163-.209c.221-.288.454-.561.7-.832.09-.1.183-.2.279-.305.122-.128.247-.253.369-.378.1-.1.206-.2.308-.294.07-.067.142-.134.218-.2.305-.276.625-.541.96-.8.058-.044.11-.087.169-.128.1-.076.192-.146.294-.215.084-.061.175-.122.268-.186s.218-.148.329-.221c.137-.093.276-.177.422-.264.422-.259.863-.509,1.323-.741.183-.1.369-.186.555-.276.355-.166.715-.329,1.087-.48.116-.052.238-.1.358-.148a.414.414,0,0,0,.055-.023c.241-.093.489-.186.741-.276l.4-.14c.268-.093.544-.183.82-.267.14-.044.279-.087.419-.128.285-.087.573-.169.867-.244.142-.041.3-.079.442-.119.3-.076.6-.151.91-.224l.465-.1.474-.1c.323-.067.646-.131.977-.195l.058-.012c.465-.084.939-.169,1.425-.247l.035,0c.314-.052.628-.1.951-.148.044-.009.084-.012.128-.02.706-.1,1.433-.195,2.186-.279.148-.018.3-.035.445-.049h.006a.017.017,0,0,0,.012,0l.052-.006c.012,0,.023,0,.035,0a.2.2,0,0,0,.041-.006.256.256,0,0,0,.047-.006c.038,0,.075-.006.113-.012.829-.1,3.277-.357,6.752-.533a2.246,2.246,0,0,1,2.377,2.027q.006.085.006.171v4.416a2.506,2.506,0,0,1-1.646,2.32,2.128,2.128,0,0,1-.358.11,21.132,21.132,0,0,0-9.9,5.263,14.787,14.787,0,0,0-4.64,11.054,13.671,13.671,0,0,0,4.027,10.06c.369.372.762.73,1.169,1.067a22.692,22.692,0,0,0,10.121,4.5l8.056,1.663c4.373.916,6.562,2.907,6.562,5.9a5.466,5.466,0,0,1-2.451,4.57c-1.576,1.163-3.762,1.663-6.562,1.663-3.852,0-6.742-.916-8.754-2.826a10.406,10.406,0,0,1-2.968-4.562,2.828,2.828,0,0,0-3.192-2.056l-6.126,1.4c-.047.012-.093.023-.142.038A2.142,2.142,0,0,0,242.165,359.124Z" transform="translate(0)"/><path class="a" d="M435.97,345.359v2.032q0,2.952-.084,5.591c-.692,20.791-5.914,27.592-26.237,29.485-.081.009-.163.017-.247.023-1.554.153-3.089.269-4.586.352a2.245,2.245,0,0,1-2.383-2.032c0-.057-.006-.114-.006-.172V376.1a2.533,2.533,0,0,1,2.021-2.431,18.728,18.728,0,0,0,9.882-5.361,14.848,14.848,0,0,0,4.376-10.557,14.468,14.468,0,0,0-4.024-10.057c-2.716-2.826-6.74-4.82-11.993-5.983l-7.963-1.747c-4.027-.831-6.042-2.657-6.042-5.568a5.742,5.742,0,0,1,2.276-4.573,9.992,9.992,0,0,1,6.391-1.91c3.152,0,5.513.832,7.088,2.41a12.053,12.053,0,0,1,2.067,2.875,3.012,3.012,0,0,0,3.32,1.771l6.082-1.646a2.143,2.143,0,0,0,1.556-2.762,19.2,19.2,0,0,0-4.271-6.638,18.351,18.351,0,0,0-8.827-4.733,2.52,2.52,0,0,1-1.939-2.407v-4.707c0-.058,0-.115.006-.172a2.243,2.243,0,0,1,2.383-2.03c1.983.112,4.031.277,6.1.513l.392.044c2.213.238,4.233.544,6.077.927,14.139,2.931,17.921,10.42,18.5,28.255Q435.973,342.324,435.97,345.359Z" transform="translate(-132.967 -0.045)"/><path class="b" d="M665.587,381.751v2.033a126.972,126.972,0,0,1-.548,13.115,4.132,4.132,0,0,0,1.36,3.593L682.24,413.8c2.774,2.33,6.706.086,6.706-3.826V359.051c0-3.911-3.929-6.155-6.7-3.829L666.7,368.26a4.094,4.094,0,0,0-1.379,3.4c.194,3.009.271,6.361.271,10.1" transform="translate(-359.412 -36.438)"/></g></svg>