<svg width="18" height="18" viewBox="0 0 18 18" fill="none" xmlns="http://www.w3.org/2000/svg">
<path d="M8.99996 11.8224C8.48034 11.8224 8.0591 12.2437 8.0591 12.7633C8.0591 13.2829 8.48034 13.7041 8.99996 13.7041C9.51958 13.7041 9.94082 13.2829 9.94082 12.7633C9.94082 12.2437 9.51958 11.8224 8.99996 11.8224ZM9.25769 11.016H8.72005C8.49737 11.016 8.31683 10.8354 8.31683 10.6127V10.5999C8.31683 8.23626 10.919 8.4622 10.919 6.9908C10.919 6.31822 10.3222 5.63962 8.98887 5.63962C8.00957 5.63962 7.50147 5.96385 6.99925 6.60374C6.86794 6.77107 6.62782 6.80518 6.45329 6.68357L6.01196 6.37611C5.82294 6.24443 5.78145 5.98058 5.92308 5.79893C6.63632 4.88404 7.48255 4.29554 8.98887 4.29554C10.7469 4.29554 12.2631 5.29523 12.2631 6.9908C12.2631 9.25605 9.66091 9.13626 9.66091 10.5999V10.6127C9.66091 10.8354 9.48037 11.016 9.25769 11.016ZM8.99996 1.74177C12.9859 1.74177 16.258 4.9701 16.258 8.99984C16.258 13.0083 13.0117 16.2579 8.99996 16.2579C4.9931 16.2579 1.74189 13.0132 1.74189 8.99984C1.74189 4.99436 4.98793 1.74177 8.99996 1.74177ZM8.99996 0.666504C4.39791 0.666504 0.666626 4.39913 0.666626 8.99984C0.666626 13.6032 4.39791 17.3332 8.99996 17.3332C13.602 17.3332 17.3333 13.6032 17.3333 8.99984C17.3333 4.39913 13.602 0.666504 8.99996 0.666504Z" fill="#347A87"/>
</svg>
