<svg xmlns="http://www.w3.org/2000/svg" width="23.742" height="23.742" viewBox="0 0 23.742 23.742"><defs><style>.a{fill:rgba(255,255,255,0.75);}</style></defs><g transform="translate(-3.375 -3.375)"><path class="a" d="M15.246,4.973A10.269,10.269,0,1,1,7.981,7.981a10.205,10.205,0,0,1,7.265-3.008m0-1.6A11.871,11.871,0,1,0,27.117,15.246,11.869,11.869,0,0,0,15.246,3.375Z"/><path class="a" d="M17.193,11.25c2.14,0,3.613,1.187,3.613,2.894a2.791,2.791,0,0,1-1.6,2.534c-.993.576-1.33,1-1.33,1.729v.451h-1.98l-.017-.491a2.376,2.376,0,0,1,1.347-2.511c.965-.576,1.37-.942,1.37-1.649a1.385,1.385,0,0,0-1.535-1.227,1.444,1.444,0,0,0-1.53,1.4H13.5C13.54,12.546,14.9,11.25,17.193,11.25Zm-1.5,9.782a1.225,1.225,0,1,1,1.221,1.176A1.2,1.2,0,0,1,15.692,21.032Z" transform="translate(-1.907 -1.483)"/></g></svg>